<?xml version="1.0" standalone="no"?>
<!DOCTYPE svg PUBLIC "-//W3C//DTD SVG 20010904//EN"
 "http://www.w3.org/TR/2001/REC-SVG-20010904/DTD/svg10.dtd">
<svg version="1.0" xmlns="http://www.w3.org/2000/svg"
 width="1080.000000pt" height="1920.000000pt" viewBox="0 0 1080.000000 1920.000000"
 preserveAspectRatio="xMidYMid meet">

<g transform="translate(0.000000,1920.000000) scale(0.100000,-0.100000)"
fill="#000000" stroke="none">
<path d="M0 15848 c0 -2161 4 -3348 10 -3338 5 8 10 28 10 44 0 28 1 29 14 10
16 -21 17 0 2 25 -7 11 -5 13 6 8 11 -4 18 1 21 14 4 13 11 17 24 13 15 -5 16
-4 3 6 -11 9 -12 13 -3 17 7 2 13 11 13 19 0 8 4 14 9 14 5 0 12 11 15 25 4
14 11 25 16 25 6 0 10 6 10 14 0 7 9 16 20 19 11 3 20 9 19 14 -4 21 2 33 16
33 8 0 15 5 15 11 0 5 4 8 8 5 11 -7 34 35 30 53 -2 8 3 16 11 19 8 3 11 0 7
-7 -4 -6 -2 -11 3 -11 6 0 11 7 11 15 0 8 5 15 10 15 6 0 10 6 10 13 0 7 7 22
16 33 8 10 13 13 9 7 -3 -7 -3 -13 0 -13 18 0 50 53 46 77 -1 6 3 14 9 18 5 3
10 -2 10 -12 1 -17 1 -17 11 0 5 9 7 22 4 27 -3 6 1 7 10 4 9 -4 15 -3 14 2
-1 5 3 20 9 34 6 14 11 20 11 14 1 -7 9 -15 18 -18 10 -4 14 -4 11 0 -7 7 51
64 65 64 5 0 7 8 5 18 -4 15 0 17 29 14 27 -4 39 2 70 32 30 29 39 33 52 23
12 -10 14 -9 9 8 -4 16 1 20 24 22 15 1 28 -2 28 -7 0 -5 12 -2 28 6 15 7 35
14 45 14 9 0 17 5 17 10 0 6 19 10 43 10 30 0 38 3 27 10 -12 8 -12 10 2 15
19 8 41 -2 33 -15 -3 -4 3 -7 12 -5 10 1 23 -2 30 -7 13 -11 12 17 -2 29 -4 4
-5 3 -2 -3 3 -6 0 -11 -8 -11 -11 0 -12 4 -4 14 6 7 14 11 18 8 4 -2 31 2 59
10 47 12 53 12 62 -3 9 -16 11 -16 21 1 5 9 15 15 20 11 5 -3 17 0 26 8 9 7
14 8 11 3 -4 -6 -3 -17 2 -25 8 -12 13 -13 28 -3 17 10 26 5 68 -39 27 -27 98
-95 158 -151 l109 -102 -7 40 c-12 72 -93 217 -207 370 -170 230 -224 340
-235 479 -14 163 73 349 205 440 41 28 71 29 71 2 0 -8 -15 -24 -34 -35 -110
-68 -196 -231 -196 -371 0 -133 56 -252 225 -480 140 -187 210 -320 227 -430
l11 -75 636 -637 c413 -415 629 -638 617 -638 -11 0 -39 -20 -62 -45 -24 -24
-46 -40 -49 -35 -3 5 -25 12 -50 15 -34 6 -68 0 -152 -25 -167 -49 -203 -81
-210 -189 -8 -119 59 -305 135 -373 59 -54 94 -56 230 -14 121 37 150 52 178
89 17 22 20 22 59 9 38 -12 51 -11 166 18 76 19 136 41 155 55 21 16 35 21 45
14 48 -30 194 12 211 62 3 10 9 9 28 -4 41 -29 183 -14 219 22 14 14 23 15 42
8 52 -20 286 12 325 44 12 10 22 10 50 0 60 -22 176 0 197 36 8 12 11 12 26
-1 21 -19 53 -21 196 -11 142 10 170 21 186 74 14 46 26 52 35 17 3 -13 17
-35 31 -48 22 -20 33 -23 105 -22 63 2 86 6 108 22 25 19 28 19 44 4 13 -13
35 -17 101 -17 75 0 87 3 107 23 21 21 23 34 29 170 3 96 6 119 7 66 4 -151
47 -230 137 -253 62 -16 242 -13 290 4 21 8 42 11 45 6 15 -23 67 -32 265 -45
247 -17 270 -13 301 46 l17 33 10 -25 c30 -77 45 -88 142 -97 45 -4 69 -1 91
10 29 15 32 14 47 -3 22 -27 103 -46 172 -41 31 2 56 26 70 68 l14 38 1 -43
c0 -63 28 -87 119 -102 55 -9 79 -9 98 -1 20 9 29 8 54 -9 42 -30 252 -74 304
-63 33 7 42 5 61 -14 44 -44 167 -62 203 -29 17 16 21 16 21 4 0 -41 112 -100
189 -100 14 0 31 -6 38 -13 7 -7 41 -23 76 -34 69 -23 97 -20 129 16 22 24 49
99 50 138 0 17 25 83 55 147 29 65 56 131 59 147 6 30 -9 68 -35 88 -25 20
-142 54 -162 48 -11 -4 -26 2 -37 13 -21 21 -113 52 -154 52 -13 0 -29 -5 -36
-12 -8 -8 -21 -2 -51 25 l-40 36 834 830 834 830 63 -5 c45 -4 71 -2 90 8 15
8 25 17 22 20 -2 3 2 8 9 11 11 4 13 0 9 -16 -5 -20 -4 -20 11 -8 15 12 21 9
18 -11 0 -5 6 -8 15 -8 9 0 12 5 8 13 -4 6 2 4 13 -6 16 -14 23 -15 29 -6 4 7
3 10 -3 6 -5 -3 -10 0 -10 8 0 11 4 12 14 4 7 -6 13 -8 13 -4 0 4 7 1 16 -6
19 -16 44 -21 44 -8 0 5 9 0 20 -11 23 -23 40 -26 40 -7 0 8 4 7 10 -3 8 -13
10 -12 10 5 0 14 3 16 12 7 8 -8 8 -15 -2 -27 -7 -8 -10 -19 -6 -23 4 -4 12 1
17 11 6 9 15 15 20 12 5 -4 6 -11 3 -17 -4 -7 -2 -8 4 -4 7 4 12 2 12 -4 0 -7
6 -8 19 0 26 13 52 13 29 -1 -10 -5 -18 -15 -18 -21 0 -6 7 -5 17 3 15 12 16
12 10 -4 -5 -14 -2 -16 17 -11 16 4 25 1 29 -10 4 -9 13 -13 21 -10 8 3 21 -4
29 -16 8 -12 17 -17 21 -12 7 12 66 3 66 -11 0 -6 15 -23 33 -39 22 -21 26
-27 12 -23 -15 5 -17 4 -6 -3 8 -6 20 -8 28 -5 7 3 19 0 27 -6 7 -6 15 -9 18
-6 3 3 10 -1 17 -8 9 -12 7 -14 -10 -13 -12 0 -24 -6 -26 -14 -4 -13 -3 -13 6
0 9 12 11 13 11 1 0 -8 3 -12 6 -8 3 3 18 -5 32 -18 14 -13 29 -22 34 -19 4 3
8 0 8 -5 0 -6 -6 -11 -12 -11 -9 0 -8 -3 2 -9 8 -6 17 -8 21 -5 4 2 12 -10 19
-26 7 -17 19 -30 27 -30 10 0 13 -6 9 -16 -3 -8 -2 -12 4 -9 6 3 10 1 10 -4 0
-16 37 -50 46 -43 5 4 2 -1 -5 -10 -12 -15 -11 -18 3 -18 9 0 16 -4 16 -10 0
-5 11 -10 24 -10 15 0 26 -7 29 -20 3 -11 1 -20 -4 -20 -5 0 -9 -4 -9 -10 0
-5 8 -6 17 -3 12 5 15 2 10 -10 -4 -11 -1 -17 9 -17 8 0 13 -4 10 -9 -3 -5 3
-11 14 -14 13 -3 18 -11 14 -21 -3 -8 1 -23 10 -31 15 -15 16 258 16 3244 l0
3261 -1920 0 -1920 0 -27 -57 c-15 -32 -28 -59 -29 -61 -1 -2 -50 17 -62 24
-11 6 31 76 50 84 14 5 -1317 9 -3435 9 l-3457 1 0 -3352z m9803 3041 c34 -9
36 -12 26 -31 -6 -11 -9 -40 -7 -63 l5 -41 -51 13 c-31 9 -71 12 -103 8 l-53
-6 0 46 c0 74 10 85 83 85 34 0 79 -5 100 -11z m-2143 -43 c0 -25 -5 -35 -19
-39 -25 -6 -34 35 -12 57 23 24 31 19 31 -18z m-5671 -145 c8 -5 11 -16 8 -24
-7 -18 -57 -11 -57 7 0 25 23 33 49 17z m-1287 -218 c14 -21 37 -51 52 -66
l26 -29 -28 -26 c-16 -15 -31 -34 -35 -42 -4 -12 -10 -10 -27 10 -38 44 -80
113 -80 131 0 16 44 59 60 59 4 0 19 -17 32 -37z m9843 -195 c25 -11 30 -19
19 -31 -8 -7 -54 22 -54 34 0 12 4 11 35 -3z m-4245 -84 c6 -14 10 -50 10 -81
0 -46 -3 -54 -16 -49 -9 3 -26 6 -38 6 -21 0 -24 5 -29 67 -3 38 -3 71 0 75 2
5 18 8 34 8 22 0 32 -6 39 -26z m2820 -254 l38 -41 -29 -28 -28 -29 -46 46
c-44 43 -45 46 -30 68 23 35 53 30 95 -16z m-6982 -101 l24 -29 -30 -38 c-17
-20 -44 -50 -60 -66 l-31 -29 -20 34 -20 33 34 37 c18 21 41 49 50 63 21 32
24 32 53 -5z m-783 -502 c0 -37 -19 -35 -26 3 -6 25 -4 30 10 28 10 -2 16 -13
16 -31z m6195 -389 c0 -33 0 -32 -45 -14 -39 17 -40 18 -23 45 9 15 15 16 40
7 21 -8 28 -17 28 -38z m-4086 -327 c17 -30 17 -33 2 -50 -30 -33 -54 -32 -75
3 -11 18 -30 41 -42 52 l-21 19 48 6 c65 8 66 7 88 -30z m1486 -199 c22 -10
42 -32 54 -56 18 -37 18 -41 2 -111 l-17 -73 -62 -11 c-160 -27 -151 -27 -143
2 3 15 9 38 12 52 l6 26 -98 -3 -98 -3 -17 -67 c-12 -50 -14 -70 -5 -77 6 -5
71 -28 145 -51 74 -23 145 -49 157 -57 37 -24 45 -68 29 -143 -8 -36 -22 -99
-31 -140 -19 -88 -32 -116 -75 -158 -28 -28 -30 -32 -13 -33 10 -1 22 -1 27 0
4 0 7 -4 7 -10 0 -8 4 -8 15 1 8 6 20 8 26 4 8 -4 9 -3 5 4 -4 7 -1 12 10 12
13 0 14 3 5 13 -9 11 -5 13 19 12 17 -1 28 0 25 3 -3 3 -1 10 4 16 5 6 51 180
101 386 51 206 98 399 106 428 l15 52 289 0 c205 0 290 -3 290 -11 0 -6 -6
-37 -14 -68 -8 -31 -17 -68 -20 -83 l-6 -28 -175 0 -174 0 -11 -42 c-6 -24
-15 -59 -21 -78 -16 -63 -23 -60 150 -60 l158 0 -21 -92 -21 -93 -153 -3 c-83
-1 -152 -6 -152 -10 0 -4 -9 -38 -20 -77 -32 -114 -42 -105 126 -105 162 0
182 -7 169 -58 -10 -37 -15 -80 -9 -64 3 6 10 10 15 6 5 -3 15 -2 21 2 7 5 26
7 43 5 27 -2 34 4 62 51 32 52 83 168 83 188 0 5 -11 10 -25 10 -28 0 -31 12
-15 69 5 20 37 150 71 289 l61 252 114 0 113 0 12 -42 c6 -24 22 -81 36 -128
14 -47 41 -143 61 -214 l36 -128 22 73 c12 41 43 156 69 257 l48 182 114 0
c104 0 114 -2 109 -17 -9 -33 -93 -385 -157 -660 l-63 -273 -101 -1 c-73 -1
-91 -3 -66 -9 18 -4 36 -12 40 -17 3 -5 29 -8 58 -8 54 2 84 -8 69 -22 -5 -4
-11 -2 -13 5 -3 6 -9 12 -15 12 -6 0 -5 -6 2 -15 7 -9 21 -13 31 -10 21 7 26
-10 7 -18 -8 -4 -7 -6 4 -6 9 -1 19 5 22 12 3 6 3 -1 -1 -18 -4 -24 -3 -28 7
-18 10 9 17 7 31 -10 10 -12 18 -17 19 -12 0 14 58 17 66 3 4 -6 3 -8 -4 -5
-6 5 -8 -1 -5 -14 4 -15 8 -17 14 -7 7 11 10 10 21 -1 11 -11 11 -13 -1 -6 -9
5 -12 3 -9 -6 2 -8 19 -19 36 -25 18 -5 29 -14 25 -19 -5 -4 1 -5 12 -1 11 4
17 4 13 1 -9 -9 23 -45 39 -45 8 0 18 -11 24 -24 7 -14 22 -27 35 -30 16 -4
24 -14 25 -29 0 -21 1 -21 9 -2 8 18 9 18 9 -5 1 -15 -4 -31 -9 -36 -7 -7 -6
-11 4 -11 8 0 12 5 9 11 -3 6 8 -3 26 -20 21 -22 29 -37 25 -49 -8 -21 17 -40
29 -22 7 9 10 9 14 -1 3 -7 13 -21 22 -30 20 -19 36 -56 21 -47 -13 8 -13 -11
1 -37 7 -14 8 -23 1 -30 -6 -6 -9 -16 -7 -22 3 -6 -35 -162 -84 -346 l-88
-335 28 -3 c16 -2 29 -5 29 -7 0 -3 -21 -36 -46 -75 -25 -39 -54 -97 -64 -128
-44 -132 -361 -1355 -353 -1362 4 -4 60 -24 123 -45 476 -155 921 -414 1309
-763 l54 -49 -31 -1 c-17 0 -41 -6 -53 -12 -18 -10 -24 -9 -30 3 -17 29 -60
47 -176 73 -100 23 -126 25 -168 17 -44 -9 -51 -8 -62 7 -18 25 -139 59 -182
51 -7 -1 -10 2 -7 8 4 6 -10 19 -31 30 -34 17 -42 17 -63 5 -14 -7 -40 -13
-57 -14 -31 0 -33 2 -33 33 0 54 -10 73 -46 91 -19 9 -37 16 -39 16 -3 0 -2
-28 2 -61 l6 -61 -61 7 c-50 6 -68 13 -100 42 -40 35 -40 35 -23 64 19 34 37
32 33 -4 -2 -20 4 -30 27 -42 30 -15 31 -15 46 14 22 44 19 68 -15 92 -22 17
-28 28 -24 44 7 29 -40 54 -55 28 -7 -14 -13 -15 -40 -4 -44 19 -72 8 -103
-42 -36 -58 -36 -89 2 -120 56 -48 28 -65 -36 -22 -37 25 -37 25 -51 5 -9 -12
-25 -20 -44 -20 -47 0 -79 -42 -143 -187 l-58 -133 -49 0 -48 0 6 143 c6 140
6 143 -18 170 -29 33 -123 53 -178 37 -22 -6 -40 -6 -52 0 -10 6 -52 10 -94
10 -67 0 -79 -3 -100 -24 -19 -19 -25 -21 -29 -9 -14 36 -64 42 -349 40 l-275
-2 -26 -24 c-14 -14 -26 -31 -26 -38 0 -7 -13 1 -29 19 -29 33 -31 33 -118 33
-115 0 -144 -18 -171 -107 -18 -57 -19 -59 -25 -31 -8 42 -51 90 -94 104 -24
8 -70 10 -131 6 -83 -5 -100 -3 -139 16 l-44 22 7 99 c4 56 3 97 -2 94 -62
-28 -62 -29 -70 -94 -3 -35 -8 -64 -10 -64 -2 0 -28 12 -58 27 l-54 26 -37
-23 -38 -23 87 -44 c74 -37 86 -47 86 -69 0 -24 -2 -25 -32 -17 -18 4 -61 7
-95 7 l-63 -1 0 58 0 58 -35 -20 c-23 -14 -35 -29 -35 -42 -1 -68 -36 -92 -94
-64 -31 14 -35 14 -67 -6 -19 -12 -36 -24 -39 -27 -3 -3 -18 -7 -35 -8 -62 -4
-126 -25 -142 -46 -16 -21 -19 -21 -56 -9 -67 23 -208 -13 -222 -57 -4 -11
-11 -17 -17 -14 -28 18 -83 21 -136 8 -87 -20 -91 -17 -37 31 385 347 807 593
1295 756 147 49 174 61 172 76 -2 10 -71 270 -153 578 -82 308 -149 563 -149
568 0 4 15 7 34 7 53 0 86 16 86 42 1 30 41 127 70 168 19 27 21 32 7 27 -73
-28 -241 -55 -250 -40 -9 14 -228 852 -233 891 -2 19 -7 39 -11 46 -4 6 0 6 9
-2 13 -10 17 -10 22 3 3 8 1 15 -4 15 -5 0 -7 7 -4 15 4 8 12 15 19 15 17 0
27 27 12 34 -7 2 -2 5 9 5 23 1 40 17 46 41 2 8 15 26 31 39 15 14 27 34 27
44 0 10 5 15 10 12 6 -3 10 -1 10 4 0 6 7 11 15 11 8 0 15 9 15 21 0 13 4 18
12 13 8 -5 9 -2 5 9 -3 9 -3 16 1 14 4 -1 7 3 7 8 0 6 -4 9 -8 7 -5 -1 -6 2
-2 8 4 7 12 7 26 0 15 -8 19 -7 19 4 0 10 6 13 16 9 13 -5 15 -2 10 15 -4 12
-2 23 5 28 8 4 9 3 5 -4 -12 -20 23 -13 44 8 23 23 26 35 8 24 -7 -4 -9 -3 -5
1 10 11 39 16 32 6 -2 -4 2 -8 9 -8 8 0 11 8 8 19 -2 10 -9 15 -15 11 -6 -3
-7 -1 -3 5 7 11 31 6 54 -11 10 -8 11 -5 3 17 -11 28 -9 31 18 17 27 -15 64
-2 58 20 -5 17 3 23 24 21 4 -1 10 10 14 25 6 25 8 25 61 19 41 -5 54 -3 54 7
0 9 9 12 29 9 16 -2 39 1 50 8 16 8 26 8 35 1 9 -8 13 -7 13 3 0 10 -37 14
-180 15 -124 1 -189 6 -211 15 -44 18 -76 61 -76 102 0 39 17 123 29 143 5 8
51 21 111 31 l102 17 -6 -27 c-3 -15 -8 -39 -12 -54 l-6 -26 101 0 101 0 5 28
c4 15 11 46 17 70 6 25 7 46 2 51 -5 5 -72 29 -150 55 -164 54 -188 72 -187
139 1 55 49 250 74 299 21 40 63 75 118 94 24 9 94 13 211 14 147 0 181 -3
210 -18z m2060 12 c0 -3 -14 -65 -30 -137 -24 -104 -28 -137 -20 -160 13 -38
13 -37 -8 -37 -13 0 -21 -13 -30 -47 -16 -67 -86 -359 -112 -470 l-22 -93
-129 0 c-71 0 -129 2 -129 5 0 2 27 114 60 247 34 134 70 279 80 322 14 54 17
82 9 86 -14 9 -23 108 -15 165 8 48 10 50 58 30 12 -5 18 1 23 27 15 73 4 68
141 68 68 0 124 -3 124 -6z m396 -115 l39 -121 85 108 c47 59 88 112 91 117 7
10 269 16 269 7 0 -3 -83 -110 -184 -239 -102 -128 -183 -239 -181 -245 6 -17
94 -291 121 -374 l23 -73 -126 3 -126 3 -36 114 -37 114 -93 -116 c-51 -64
-94 -117 -95 -117 -66 -6 -266 -11 -266 -6 0 7 197 260 309 396 33 41 61 82
61 90 0 8 -32 112 -70 230 -39 118 -70 218 -70 222 0 4 55 8 123 8 l123 0 40
-121z m-6631 -438 c46 -21 46 -23 31 -44 -28 -38 -76 -141 -76 -164 0 -18 -8
-22 -50 -28 -75 -10 -170 3 -170 23 1 32 59 165 106 243 l47 78 33 -43 c19
-25 52 -52 79 -65z m-421 -364 c31 -40 32 -53 7 -60 -14 -3 -28 7 -50 38 -32
45 -31 47 11 54 4 0 18 -14 32 -32z m4493 18 c0 -8 -4 -15 -9 -15 -10 0 -11
14 -1 23 9 10 10 9 10 -8z m-2139 -138 c18 -20 22 -16 -54 -56 -34 -18 -87
-55 -117 -82 -41 -36 -57 -46 -65 -36 -16 20 -42 75 -42 89 0 16 102 86 185
127 l60 29 9 -26 c5 -15 15 -35 24 -45z m5462 -57 l20 -40 -40 0 c-35 0 -40 3
-46 27 -5 19 -2 30 11 40 28 19 33 17 55 -27z m-4801 -27 c10 -23 9 -29 -8
-46 -19 -20 -19 -19 -40 21 -15 30 -17 42 -8 45 27 12 44 6 56 -20z m5745
-943 l45 0 -24 -52 c-14 -29 -27 -79 -31 -110 -7 -58 -7 -58 -41 -58 -42 0
-103 25 -103 42 1 32 30 149 45 178 16 30 17 31 40 16 13 -9 44 -16 69 -16z
m1096 -1107 c0 -8 -8 -5 -20 7 -11 11 -20 22 -20 25 0 3 9 0 20 -7 11 -7 20
-18 20 -25z m45 -13 c3 -5 1 -10 -4 -10 -6 0 -11 5 -11 10 0 6 2 10 4 10 3 0
8 -4 11 -10z m-9628 -52 c-3 -8 -6 -5 -6 6 -1 11 2 17 5 13 3 -3 4 -12 1 -19z
m6008 -1107 c7 -12 -15 -61 -27 -61 -15 0 -20 28 -8 49 11 22 25 27 35 12z m5
-176 c0 -21 -17 -27 -24 -9 -10 25 -7 34 9 28 8 -4 15 -12 15 -19z m-1230 -30
l0 -45 -66 0 -66 0 4 -172 3 -173 -52 -3 -53 -3 0 160 c0 87 -2 165 -5 173 -4
9 -22 12 -65 10 l-60 -4 0 46 0 45 128 4 c70 1 151 4 180 5 l52 2 0 -45z m154
35 c18 0 19 -7 12 -152 -3 -84 -3 -158 1 -164 5 -7 31 -13 58 -14 90 -4 82
-19 90 165 l7 165 55 0 54 0 -6 -147 c-8 -206 -11 -226 -41 -254 -22 -20 -38
-24 -105 -28 -109 -4 -166 5 -195 34 -24 24 -24 27 -24 216 l0 192 38 -7 c20
-3 46 -6 56 -6z m-678 -21 c10 -16 154 -392 154 -402 0 -4 -26 -7 -57 -5 l-57
3 -15 49 -15 48 -65 -6 c-35 -4 -68 -9 -72 -12 -4 -2 -10 -22 -14 -44 -8 -46
-27 -60 -79 -60 -26 0 -36 4 -36 15 0 18 96 370 110 403 9 20 17 22 74 22 37
0 68 -5 72 -11z m1150 -81 c-4 -51 -9 -130 -12 -175 l-6 -83 70 0 c38 0 84 -3
101 -6 27 -6 31 -11 31 -40 0 -18 -5 -36 -11 -40 -6 -3 -76 -3 -156 1 l-146 7
7 117 c3 64 9 160 13 214 l6 97 54 0 55 0 -6 -92z m-1524 61 c47 -25 67 -160
29 -198 -19 -19 -19 -20 1 -33 16 -11 24 -34 34 -93 8 -43 12 -81 9 -83 -2 -3
-27 -7 -54 -10 l-50 -4 -6 38 c-4 22 -10 55 -14 74 l-7 35 -59 0 -60 0 3 -82
3 -83 -54 0 -54 0 -14 148 c-7 81 -13 176 -14 212 l0 65 110 11 c152 15 173
16 197 3z m2030 -18 c7 -6 98 -395 98 -418 0 -9 -18 -13 -54 -13 l-55 0 -6 43
c-4 24 -10 49 -15 57 -4 7 -37 15 -74 19 l-66 7 -16 -48 -16 -48 -54 0 c-30 0
-54 4 -54 9 0 8 165 385 177 404 6 10 124 -1 135 -12z m371 -41 c76 -11 142
-20 148 -20 10 0 12 -34 3 -68 -5 -18 -12 -22 -33 -18 -14 2 -42 7 -62 10
l-36 6 -24 -167 -24 -168 -50 3 c-27 2 -51 5 -53 7 -2 1 6 68 17 149 30 207
33 192 -40 200 l-61 7 6 31 c3 17 6 37 6 45 0 10 8 12 33 8 17 -3 94 -14 170
-25z m-2821 -11 c11 -14 23 -42 27 -62 10 -41 2 -47 -59 -47 -32 0 -39 4 -44
26 -7 25 -8 26 -69 19 -34 -4 -66 -10 -71 -12 -10 -7 0 -115 17 -193 13 -54
13 -55 47 -53 94 7 118 21 105 64 -5 16 -13 17 -50 12 l-44 -6 -7 37 c-3 20
-5 39 -2 41 7 8 189 28 195 21 3 -3 7 -46 7 -96 1 -83 -1 -91 -25 -115 -22
-22 -42 -29 -125 -41 -108 -15 -144 -12 -168 15 -25 28 -45 97 -57 196 -13
107 -2 167 34 187 31 17 152 37 216 35 45 -2 57 -6 73 -28z m-398 -225 c21
-113 36 -208 33 -211 -10 -10 -90 -24 -106 -18 -9 3 -56 55 -105 115 -49 61
-91 108 -93 106 -2 -2 6 -59 18 -126 12 -69 18 -125 13 -129 -12 -11 -94 -23
-94 -14 0 5 -16 97 -36 206 -23 122 -34 201 -28 207 5 5 34 12 64 16 l55 6 93
-112 c50 -62 92 -109 92 -104 -1 5 -11 62 -24 127 l-23 117 26 6 c14 3 31 7
36 9 38 13 40 8 79 -201z m3543 183 c2 -2 -12 -94 -32 -204 -19 -110 -35 -204
-35 -208 0 -7 -98 0 -106 8 -2 2 12 93 31 203 19 109 35 203 35 208 0 8 98 2
107 -7z m-2148 -84 l0 -68 -18 45 c-35 86 -35 90 -7 90 25 0 26 -2 25 -67z
m2423 32 c92 -19 126 -33 138 -56 16 -29 11 -139 -10 -222 -41 -163 -66 -178
-233 -141 -102 23 -124 37 -137 83 -18 68 30 282 76 332 21 23 66 24 166 4z
m-4333 -64 c44 -47 98 -248 85 -317 -9 -47 -33 -64 -131 -90 -114 -31 -153
-31 -182 0 -27 29 -57 106 -76 198 -32 149 -17 175 120 212 123 33 150 33 184
-3z m3542 19 c9 0 6 -42 -8 -100 -5 -22 -8 -18 -19 25 -17 72 -17 88 2 81 9
-3 20 -6 25 -6z m1127 -35 c28 -9 56 -23 61 -33 5 -9 21 -72 36 -139 16 -68
30 -121 33 -119 2 3 19 56 37 118 35 123 37 125 106 94 l26 -11 -56 -197 c-31
-108 -59 -199 -63 -203 -4 -4 -29 1 -57 10 -57 19 -50 3 -99 209 l-28 119 -34
-124 c-18 -68 -36 -129 -39 -135 -8 -16 -103 13 -99 29 35 135 113 397 118
397 3 0 30 -7 58 -15z m-828 -15 c0 -5 -5 -10 -11 -10 -5 0 -7 5 -4 10 3 6 8
10 11 10 2 0 4 -4 4 -10z m-4297 -59 c25 -10 62 -64 73 -105 5 -21 1 -24 -40
-35 -25 -6 -47 -11 -49 -11 -3 0 -10 14 -17 30 -14 34 -17 35 -85 11 -30 -11
-51 -25 -53 -35 -4 -20 43 -172 63 -203 l15 -22 61 21 60 20 -6 38 c-6 38 -6
38 41 54 26 9 48 15 50 13 10 -12 22 -111 15 -130 -13 -34 -30 -45 -127 -77
-138 -47 -173 -39 -214 46 -52 111 -79 238 -61 283 15 34 31 43 146 81 104 34
97 33 128 21z m4278 -38 c-4 -28 -6 -32 -9 -15 -3 22 3 52 11 52 1 0 1 -17 -2
-37z m1328 -35 l31 -13 -62 -132 c-56 -120 -63 -131 -82 -123 -27 10 -26 40 4
183 l23 109 27 -6 c16 -3 42 -11 59 -18z m-1342 -45 c-3 -10 -5 -4 -5 12 0 17
2 24 5 18 2 -7 2 -21 0 -30z m1253 -279 c0 -17 -29 -84 -36 -84 -4 0 -24 5
-46 12 -43 13 -45 23 -19 89 l10 27 45 -16 c25 -9 46 -22 46 -28z"/>
<path d="M5940 15807 c-25 -100 -45 -191 -46 -202 0 -11 -3 -26 -7 -32 -5 -8
0 -11 13 -10 11 1 20 5 20 9 0 4 5 8 11 8 7 0 9 -11 6 -30 -5 -24 -3 -30 11
-30 13 0 14 2 3 9 -8 5 9 8 45 6 33 -2 58 -8 57 -14 -3 -12 34 -6 53 10 9 7
14 7 14 1 0 -5 -7 -12 -15 -16 -8 -3 -15 -10 -15 -16 0 -6 7 -4 16 5 13 13 19
14 25 4 4 -7 5 -17 2 -23 -3 -5 -2 -6 4 -3 7 4 7 18 -1 41 -6 19 -15 32 -20
29 -5 -3 -6 -1 -2 6 4 6 3 26 -3 44 -5 17 -23 75 -39 127 -17 52 -40 129 -53
170 -12 41 -25 78 -28 82 -4 4 -27 -74 -51 -175z"/>
<path d="M5614 15564 c-18 -14 -18 -15 4 -4 12 6 22 13 22 15 0 8 -5 6 -26
-11z"/>
<path d="M4743 15513 c-10 -10 -14 -15 -9 -10 16 11 28 8 20 -5 -4 -7 -3 -9 1
-5 9 7 16 37 10 37 -1 0 -11 -8 -22 -17z"/>
<path d="M5944 14636 c-43 -19 -52 -69 -16 -86 14 -6 25 -9 26 -8 18 37 46
100 46 103 0 9 -24 5 -56 -9z"/>
<path d="M5280 13812 c0 -10 9 -27 21 -38 41 -37 119 -153 159 -235 40 -85 70
-193 70 -261 0 -114 -49 -229 -138 -317 l-64 -65 -29 61 c-66 139 -200 184
-286 98 -27 -27 -33 -40 -33 -78 0 -57 32 -105 90 -135 40 -21 55 -23 137 -19
l93 5 10 -37 c50 -186 37 -324 -38 -411 -76 -90 -189 -102 -260 -29 -30 31
-62 35 -62 8 0 -21 70 -78 108 -89 197 -54 354 133 322 386 -5 41 -17 102 -26
136 l-16 62 29 20 c87 61 168 181 192 286 28 119 2 277 -66 415 -75 153 -213
306 -213 237z m-93 -781 c30 -19 74 -82 87 -127 6 -18 1 -24 -25 -33 -135 -47
-290 69 -204 154 31 31 95 34 142 6z"/>
<path d="M4797 11757 c-9 -36 -17 -69 -17 -72 0 -3 18 -5 40 -5 47 0 47 3 16
84 l-23 60 -16 -67z"/>
<path d="M4353 11803 c-46 -4 -46 -6 -37 -65 6 -37 8 -38 48 -38 71 0 86 8 86
45 0 48 -9 65 -34 63 -11 -1 -40 -3 -63 -5z"/>
<path d="M6437 11720 c-14 -34 -24 -66 -21 -71 8 -14 74 -11 74 4 -1 6 -6 39
-13 71 l-12 59 -28 -63z"/>
<path d="M7406 11598 c-20 -72 -38 -177 -32 -187 7 -10 125 -36 132 -28 10 10
43 151 46 197 l3 44 -50 12 c-82 20 -83 19 -99 -38z"/>
<path d="M3033 11583 c-74 -17 -73 -14 -42 -143 28 -122 29 -123 107 -103 46
11 62 20 62 33 0 26 -49 213 -57 221 -5 3 -36 0 -70 -8z"/>
<path d="M9886 13365 c-3 -8 -1 -15 4 -15 6 0 10 7 10 15 0 8 -2 15 -4 15 -2
0 -6 -7 -10 -15z"/>
<path d="M1098 13347 c-7 -8 -20 -12 -28 -9 -10 3 -12 1 -5 -6 13 -15 55 -4
55 14 0 17 -5 18 -22 1z"/>
<path d="M9930 13345 c0 -8 7 -11 20 -8 22 6 19 15 -5 19 -8 1 -15 -4 -15 -11z"/>
<path d="M838 13273 c7 -3 16 -2 19 1 4 3 -2 6 -13 5 -11 0 -14 -3 -6 -6z"/>
<path d="M10280 13200 c0 -5 5 -10 11 -10 5 0 7 5 4 10 -3 6 -8 10 -11 10 -2
0 -4 -4 -4 -10z"/>
<path d="M10310 13182 c0 -5 7 -9 15 -9 8 0 12 4 9 9 -3 4 -9 8 -15 8 -5 0 -9
-4 -9 -8z"/>
<path d="M580 13165 c0 -9 6 -12 15 -9 8 4 12 10 9 15 -8 14 -24 10 -24 -6z"/>
<path d="M218 12793 c7 -3 16 -2 19 1 4 3 -2 6 -13 5 -11 0 -14 -3 -6 -6z"/>
<path d="M2105 10929 c-49 -12 -124 -59 -151 -96 -46 -62 -74 -142 -41 -114 8
6 17 8 21 4 11 -12 56 -14 56 -4 0 19 63 82 101 102 38 19 91 19 3289 19 3212
0 3251 0 3289 -20 22 -10 54 -37 73 -59 27 -32 42 -40 76 -44 49 -5 52 4 22
63 -27 54 -77 102 -136 131 l-49 24 -3255 2 c-1978 0 -3271 -3 -3295 -8z"/>
<path d="M0 9211 c0 -1154 3 -1451 13 -1451 6 0 59 13 117 30 58 16 108 30
113 30 4 0 7 -10 7 -22 0 -20 2 -20 34 11 31 30 73 43 806 241 426 115 777
215 782 222 4 7 8 434 8 948 0 607 -4 930 -10 920 -9 -13 -10 -13 -10 0 0 12
-208 72 -917 265 -505 136 -924 250 -930 253 -10 3 -13 -290 -13 -1447z"/>
<path d="M10415 10543 c-209 -57 -623 -169 -920 -249 -297 -80 -547 -148 -555
-151 -15 -6 -26 -9 -47 -11 -9 -2 -11 -226 -10 -929 2 -817 4 -928 17 -929 8
0 22 -4 30 -7 8 -3 283 -79 610 -167 327 -89 743 -202 924 -251 181 -49 330
-88 332 -86 2 2 3 652 2 1443 l-3 1440 -380 -103z m130 -1685 c17 -29 53 -71
82 -94 l52 -42 -52 -49 c-46 -43 -132 -93 -140 -82 -2 2 -21 31 -43 64 -21 33
-60 82 -85 108 l-46 48 27 19 c33 23 151 80 165 80 6 -1 24 -24 40 -52z"/>
<path d="M1297 7888 c-31 -17 -37 -24 -31 -41 4 -12 8 -30 8 -39 0 -23 7 -23
66 7 64 32 69 43 36 72 -31 27 -29 27 -79 1z"/>
<path d="M10114 7716 l-10 -34 51 -21 c28 -12 74 -37 104 -56 29 -19 57 -35
61 -35 11 0 23 59 18 90 -4 28 -12 32 -108 58 -41 11 -82 23 -90 26 -11 5 -18
-4 -26 -28z"/>
<path d="M1918 7652 c-22 -4 -22 -4 2 -52 26 -51 81 -104 139 -132 l46 -23
3118 -3 c1715 -1 3117 1 3115 5 -1 5 -14 27 -28 50 l-25 43 -3078 0 c-3027 0
-3078 0 -3116 19 -21 11 -53 37 -71 57 -31 36 -59 46 -102 36z"/>
<path d="M8740 7617 c-54 -64 -77 -71 -243 -77 l-148 -5 31 -49 31 -48 122 4
c137 5 192 23 253 85 31 31 74 101 74 121 0 5 -20 8 -44 8 -38 -1 -48 -6 -76
-39z"/>
<path d="M3553 6986 c3 -8 7 -52 8 -98 l3 -83 -88 -46 -88 -46 36 -21 37 -22
49 25 c27 14 54 25 60 25 6 0 10 -25 10 -59 0 -57 2 -60 34 -80 18 -12 37 -21
41 -21 4 0 5 44 2 98 l-7 98 92 45 91 45 -36 23 -37 23 -57 -31 c-67 -37 -73
-32 -73 50 0 53 -1 56 -35 72 -43 21 -49 21 -42 3z"/>
<path d="M7077 6965 c-14 -10 -16 -18 -9 -31 8 -15 5 -22 -19 -36 -42 -26 -46
-58 -13 -119 36 -65 58 -76 109 -55 20 9 39 16 41 16 4 0 34 -57 34 -65 0 -11
-28 -4 -40 10 -11 13 -16 13 -41 -2 -35 -21 -36 -24 -3 -62 29 -35 43 -37 84
-16 26 14 30 13 39 -2 8 -15 12 -16 35 -3 19 10 25 19 20 33 -4 12 1 24 15 33
41 29 44 50 17 109 -31 69 -57 83 -111 61 -21 -9 -39 -15 -40 -14 0 2 -9 16
-18 31 -10 15 -15 32 -12 37 9 15 33 12 43 -6 8 -15 12 -15 41 0 31 17 31 17
15 45 -27 45 -48 54 -91 36 -32 -14 -38 -14 -53 0 -20 18 -20 18 -43 0z m57
-130 c17 -27 14 -45 -8 -45 -16 0 -40 45 -32 59 11 17 22 13 40 -14z m146 -84
c14 -27 13 -41 -5 -41 -14 0 -35 29 -35 49 0 18 29 12 40 -8z"/>
<path d="M3846 6738 l7 -103 -83 -40 c-45 -22 -84 -43 -86 -46 -2 -4 12 -16
31 -27 l34 -21 56 28 c30 15 57 26 60 23 3 -3 5 -31 5 -63 0 -55 1 -58 36 -78
19 -12 38 -21 41 -21 3 0 3 44 0 98 l-7 98 90 44 c49 24 87 47 84 52 -3 4 -18
15 -35 23 -27 15 -32 14 -88 -15 l-60 -30 -7 70 c-6 66 -8 71 -41 90 -19 11
-36 20 -38 20 -3 0 -2 -46 1 -102z"/>
<path d="M6919 6823 c-27 -17 -39 -52 -39 -121 l0 -32 -60 30 -61 31 -41 -25
-42 -25 94 -42 93 -43 -7 -104 -6 -103 40 22 40 23 0 63 c0 35 2 63 5 63 3 0
28 -11 55 -25 60 -30 64 -30 107 -4 l34 21 -90 44 -91 44 6 100 c4 58 3 100
-2 100 -5 0 -21 -8 -35 -17z"/>
<path d="M7790 6679 c-370 -345 -811 -607 -1304 -775 -88 -30 -161 -55 -162
-57 -3 -3 8 -47 51 -202 44 -164 143 -536 225 -849 50 -191 102 -386 115 -433
l25 -85 -73 -78 c-40 -43 -87 -99 -105 -123 l-32 -45 32 -43 c18 -23 43 -48
55 -56 21 -14 23 -12 52 44 38 76 101 150 112 131 6 -11 217 -808 239 -905 8
-31 -3 -47 -13 -20 -3 6 -3 -8 -1 -32 5 -42 4 -43 -20 -39 -15 3 -26 1 -26 -3
0 -5 -7 -9 -15 -9 -8 0 -15 -7 -15 -15 0 -8 5 -15 11 -15 5 0 7 -5 4 -10 -5
-8 -12 -7 -23 2 -14 11 -15 10 -9 -5 5 -13 2 -20 -10 -24 -26 -7 -59 -53 -44
-62 7 -5 3 -12 -13 -20 -13 -8 -29 -10 -35 -7 -6 4 -9 -8 -8 -34 2 -28 -1 -40
-11 -40 -8 0 -12 6 -8 15 3 9 0 15 -9 15 -14 0 -19 -11 -16 -37 2 -17 -16 -17
-23 0 -3 6 -3 2 0 -10 4 -18 1 -22 -18 -21 -42 2 -58 -2 -58 -13 0 -6 9 -8 23
-4 15 4 18 3 8 -3 -11 -8 -11 -10 0 -15 8 -3 -3 -4 -23 -3 -34 2 -36 1 -26
-18 9 -17 8 -19 -3 -8 -7 6 -22 11 -33 11 -18 -1 -19 -2 -3 -6 17 -4 17 -5 1
-17 -11 -8 -18 -27 -18 -50 -1 -35 -12 -43 -48 -37 -5 0 -8 -6 -8 -15 0 -8 -4
-13 -9 -10 -5 4 -11 1 -13 -5 -2 -6 -22 -13 -43 -15 -22 -2 -41 -8 -43 -14 -6
-18 -22 -11 -16 8 5 16 5 16 -6 0 -14 -22 -32 -24 -24 -3 5 12 -1 15 -32 13
-22 -2 -42 -7 -46 -13 -5 -6 -8 -5 -8 3 0 6 -7 12 -16 12 -9 0 -14 -7 -12 -17
2 -10 -4 -25 -13 -34 -9 -9 -19 -23 -22 -30 -4 -11 -8 -10 -19 5 -9 11 -22 17
-31 13 -9 -3 -18 1 -21 9 -3 9 -11 12 -17 8 -7 -4 -7 -9 -2 -13 20 -13 10 -38
-15 -36 -27 1 -55 32 -47 53 3 7 0 10 -6 6 -6 -3 -9 -14 -6 -23 5 -20 -20 -25
-41 -8 -10 8 -16 7 -22 -3 -10 -17 -129 -18 -139 -1 -5 8 -14 5 -29 -9 -18
-17 -22 -18 -22 -5 0 8 -7 15 -15 15 -8 0 -15 -4 -15 -10 0 -5 -10 -10 -22
-10 -17 0 -19 3 -10 9 10 6 7 10 -11 13 -19 4 -24 1 -20 -9 4 -10 -3 -13 -28
-12 -19 1 -43 -1 -54 -4 -11 -4 -35 -3 -53 3 -38 10 -73 3 -50 -11 9 -6 9 -9
1 -9 -6 0 -15 5 -18 10 -4 6 -15 8 -25 5 -12 -4 -19 1 -24 17 -6 22 -7 22 -21
4 -9 -12 -21 -17 -36 -13 -11 3 -31 1 -44 -5 l-23 -10 25 -24 c14 -13 21 -24
16 -24 -6 0 -16 7 -23 15 -16 19 -46 19 -53 1 -7 -19 -67 -18 -67 1 0 7 6 14
13 14 6 1 19 3 27 4 29 3 50 17 50 34 0 14 -2 14 -10 1 -5 -8 -10 -10 -10 -3
0 6 -9 9 -20 6 -11 -3 -17 -10 -14 -15 4 -6 -2 -7 -17 -3 -13 4 -27 13 -31 19
-5 7 -16 2 -32 -13 -14 -13 -23 -27 -21 -32 6 -9 -15 -7 -31 4 -6 3 -14 3 -18
0 -11 -12 -39 -12 -59 -1 -14 7 -17 7 -13 -1 5 -7 -4 -9 -26 -4 -46 8 -45 10
7 17 25 4 45 11 45 17 0 5 5 9 11 9 5 0 7 -5 4 -10 -3 -5 -1 -10 4 -10 6 0 11
4 11 9 0 17 -20 23 -35 11 -8 -7 -15 -8 -15 -3 0 6 -11 8 -24 6 -13 -3 -27 0
-30 6 -4 6 -14 11 -22 11 -14 0 -14 -2 0 -15 14 -14 14 -18 -2 -35 -17 -20
-27 -27 -18 -12 3 4 -28 7 -67 6 -43 -1 -83 4 -98 12 -17 8 -29 10 -36 3 -6
-6 -10 -5 -10 5 0 8 8 13 19 11 10 -2 18 0 18 5 0 10 45 3 71 -10 21 -12 119
-13 119 -2 0 22 -93 42 -105 22 -4 -7 -13 -6 -27 1 -11 6 -34 9 -50 7 -19 -3
-32 0 -35 9 -4 11 -8 10 -19 -4 -7 -10 -14 -14 -14 -9 0 4 -11 1 -25 -8 -21
-14 -25 -14 -25 -2 0 11 -6 13 -29 6 -18 -5 -31 -5 -33 1 -2 6 -12 11 -21 13
-21 3 -38 26 -31 38 3 5 0 7 -7 6 -7 -2 -13 3 -14 10 0 6 -3 12 -7 12 -5 0
-12 0 -18 0 -5 0 -10 -9 -10 -20 0 -11 -5 -20 -10 -20 -6 0 -10 8 -8 18 2 10
-2 16 -11 14 -9 -2 -12 5 -9 26 4 25 1 28 -19 24 -13 -2 -30 1 -38 8 -13 11
-15 8 -16 -16 -1 -16 0 -37 1 -48 1 -11 -3 -16 -9 -11 -6 3 -8 11 -5 17 5 7 2
9 -7 6 -15 -6 -42 16 -32 26 10 10 35 7 28 -4 -3 -5 -1 -10 5 -10 7 0 9 7 6
16 -3 9 -6 27 -6 40 0 13 -5 24 -11 24 -5 0 -7 -4 -4 -10 3 -5 -1 -10 -9 -10
-8 0 -18 -5 -22 -12 -5 -8 -2 -9 9 -5 19 7 23 -8 5 -19 -6 -4 -16 0 -23 9 -13
18 -30 24 -20 7 3 -5 0 -7 -8 -4 -20 7 -15 36 9 45 14 6 15 8 3 8 -13 1 -14
10 -6 72 8 64 -3 213 -18 227 -2 2 -24 -6 -49 -18 -25 -12 -70 -24 -101 -27
-47 -5 -55 -9 -49 -22 4 -9 7 -34 8 -56 1 -29 -3 -40 -15 -43 -9 -1 -16 4 -16
12 0 12 4 13 14 5 10 -9 13 -7 13 9 0 14 -7 20 -26 20 -21 -1 -25 -4 -20 -22
17 -61 18 -71 7 -56 -6 8 -11 23 -11 33 0 9 -4 17 -8 17 -5 0 -6 14 -4 31 4
28 3 31 -17 24 -20 -6 -21 -4 -15 21 5 19 4 25 -5 20 -21 -13 -46 3 -46 29 0
14 3 25 8 25 4 0 7 -11 7 -25 0 -14 4 -25 9 -25 18 0 17 25 0 44 -15 15 -21
17 -33 7 -12 -10 -14 -7 -12 18 1 16 -2 28 -6 25 -4 -3 -8 7 -8 23 -1 27 -1
27 -16 8 -13 -17 -16 -18 -24 -5 -5 8 -10 19 -10 24 0 4 -6 6 -14 3 -10 -4
-15 7 -19 41 -6 47 69 352 258 1052 35 129 86 321 113 425 128 489 237 903
273 1034 22 79 38 145 37 146 -2 2 -84 30 -184 63 -488 163 -909 408 -1294
752 l-87 78 -263 -263 c-216 -216 -269 -265 -294 -267 -26 -3 -31 -7 -29 -29
1 -22 -85 -112 -550 -575 -757 -753 -767 -762 -767 -733 0 18 -2 21 -9 9 -6
-8 -7 -18 -4 -24 3 -5 1 -6 -6 -2 -6 4 -9 12 -6 17 10 15 -7 10 -29 -8 -21
-18 -21 -18 -2 5 24 28 18 34 -24 22 -27 -8 -36 -7 -43 5 -12 22 -48 20 -41
-2 4 -11 3 -14 -3 -7 -14 19 -53 35 -66 28 -9 -6 -9 -4 1 8 11 14 8 15 -25 11
-21 -3 -40 -8 -43 -12 -10 -12 -31 -11 -29 1 4 29 -2 38 -26 38 -14 0 -25 5
-25 11 0 6 -7 8 -15 5 -8 -3 -21 -8 -28 -11 -8 -4 -18 5 -25 21 -10 21 -15 24
-27 14 -11 -9 -18 -9 -30 4 -9 9 -22 16 -28 16 -7 0 -6 5 3 11 12 8 9 10 -12
6 -15 -2 -25 -1 -23 3 2 4 -10 21 -27 39 -29 29 -32 30 -44 14 -13 -17 -14
-17 -8 0 3 9 1 17 -5 17 -6 0 -11 9 -11 19 0 13 -8 21 -22 23 -13 2 -22 9 -20
17 2 9 -3 11 -14 7 -11 -4 -18 0 -21 14 -3 11 -9 18 -13 15 -5 -3 -11 -1 -14
4 -4 5 -1 13 5 17 7 4 9 3 5 -4 -4 -7 1 -10 14 -7 18 3 20 0 14 -18 -5 -17 -4
-19 6 -10 7 6 10 19 6 29 -4 9 -9 14 -13 10 -7 -7 -43 23 -43 36 0 5 6 6 13 2
6 -4 8 -3 4 1 -11 13 -38 15 -31 3 5 -7 2 -8 -5 -3 -8 5 -11 18 -7 37 5 26 4
28 -10 14 -8 -9 -20 -16 -25 -16 -15 0 -50 40 -44 50 4 6 1 10 -4 10 -6 0 -11
5 -11 11 0 5 5 7 12 3 7 -4 8 -3 4 4 -4 7 -14 12 -22 12 -8 0 -12 5 -9 10 4 6
-5 10 -19 10 -28 0 -34 18 -14 39 11 10 9 11 -6 5 -16 -6 -18 -4 -13 11 7 16
3 17 -30 12 -21 -3 -32 -3 -25 0 17 7 15 16 -8 31 -20 12 -20 10 -20 -1068 l0
-1081 22 12 c18 10 24 8 35 -7 23 -32 16 -59 -22 -77 l-35 -17 0 -441 0 -440
26 20 c33 26 46 26 67 3 20 -22 21 -32 5 -32 -7 0 -24 -9 -38 -20 -23 -17 -26
-17 -42 -3 -17 15 -18 -39 -18 -1165 l0 -1182 2463 0 c1354 0 2456 4 2449 8
-10 7 -9 14 6 33 10 13 31 45 46 70 21 37 31 46 46 42 25 -7 25 -2 -5 -84
l-25 -69 2910 0 2910 0 0 2676 c0 2537 -1 2678 -17 2691 -17 14 -17 14 0 9 9
-3 17 -1 17 5 0 6 -10 9 -22 7 -16 -2 -24 -11 -26 -28 -2 -13 -13 -35 -23 -49
-10 -13 -19 -31 -19 -40 0 -14 -2 -14 -10 -1 -5 8 -10 12 -12 10 -2 -3 -8 -14
-14 -25 -7 -12 -22 -20 -36 -20 -14 0 -25 -4 -25 -10 0 -5 -1 -23 -2 -40 -2
-28 -3 -29 -11 -7 -5 12 -11 22 -13 22 -8 0 -4 -36 6 -47 7 -9 5 -13 -7 -13
-10 0 -14 -4 -11 -10 3 -5 2 -10 -4 -10 -5 0 -12 6 -14 13 -4 9 -6 9 -6 -1 -1
-18 -29 -45 -40 -38 -5 3 -8 -2 -7 -11 0 -10 -3 -18 -9 -18 -24 -2 -54 -26
-49 -40 4 -8 1 -15 -5 -15 -6 0 -11 -8 -11 -17 0 -9 -3 -13 -6 -10 -4 3 -15 2
-25 -4 -21 -11 -25 1 -7 19 7 7 9 12 6 12 -4 0 -21 -15 -37 -32 -17 -18 -31
-27 -31 -20 0 22 -19 13 -26 -13 -7 -27 -14 -31 -30 -15 -7 7 -17 4 -30 -8
-20 -19 -42 -18 -57 2 -5 6 -7 2 -4 -12 4 -17 1 -22 -11 -20 -11 2 -16 -3 -14
-13 1 -9 -5 -19 -13 -23 -10 -4 -14 -2 -9 6 5 7 -1 9 -18 5 -18 -5 -28 -2 -32
8 -8 23 -29 18 -23 -5 3 -11 1 -20 -4 -20 -5 0 -9 5 -9 12 0 6 -7 4 -18 -5
-20 -18 -57 -23 -47 -7 3 6 2 10 -3 10 -6 0 -12 -7 -16 -15 -3 -8 -10 -15 -16
-15 -6 0 -8 5 -5 11 5 7 -3 9 -24 6 -17 -3 -33 -1 -37 4 -7 12 -24 11 -24 -2
0 -14 -25 -39 -39 -39 -6 0 -331 318 -722 708 -391 389 -720 710 -730 714 -11
4 -23 18 -28 30 -5 13 -114 127 -243 255 l-233 232 -75 -70z m-7514 -1451 c4
-7 3 -8 -4 -4 -7 4 -12 2 -12 -5 0 -7 -3 -10 -6 -6 -6 5 3 27 11 27 2 0 7 -5
11 -12z m10364 -40 c0 -18 -2 -20 -9 -8 -6 8 -7 18 -5 22 9 14 14 9 14 -14z
m-10300 -58 c0 -5 -4 -10 -10 -10 -5 0 -10 5 -10 10 0 6 5 10 10 10 6 0 10 -4
10 -10z m117 -112 c-3 -8 -6 -5 -6 6 -1 11 2 17 5 13 3 -3 4 -12 1 -19z m-11
-131 c33 -35 67 -77 76 -94 l18 -31 -34 -20 -34 -20 -31 44 c-18 24 -54 65
-81 91 l-49 48 21 22 c12 13 29 23 39 23 9 0 43 -28 75 -63z m9824 23 c0 -5
-4 -10 -10 -10 -5 0 -10 5 -10 10 0 6 5 10 10 10 6 0 10 -4 10 -10z m453 -129
c32 -36 67 -91 67 -106 0 -3 -15 -5 -33 -5 -18 0 -42 -7 -53 -15 -26 -19 -32
-19 -39 5 -4 11 -23 41 -42 67 l-36 47 27 23 c39 34 68 29 109 -16z m-108
-268 c11 -21 33 -52 49 -70 15 -18 23 -33 17 -33 -7 0 -23 -11 -37 -25 l-25
-25 -29 33 c-19 21 -30 43 -30 63 0 34 18 94 29 94 3 0 15 -17 26 -37z m-1283
-100 c29 -28 36 -49 17 -55 -17 -6 -71 52 -65 68 8 20 16 18 48 -13z m-7396
-477 c3 -8 -5 -37 -17 -66 -18 -42 -24 -49 -35 -38 -10 11 -9 23 4 65 16 51
37 68 48 39z m7057 -46 c45 -33 90 -65 100 -72 15 -11 16 -19 8 -47 -12 -40
-38 -81 -51 -81 -5 0 -22 19 -39 43 -16 24 -54 68 -85 99 l-56 56 17 31 c10
17 20 31 21 31 2 0 41 -27 85 -60z m-5847 -94 c-4 -11 -12 -42 -18 -68 -11
-48 -29 -61 -68 -51 -11 3 -20 7 -20 9 0 2 16 34 36 72 30 57 40 69 56 64 14
-3 18 -10 14 -26z m-1195 -111 c23 -25 52 -48 65 -51 13 -4 24 -8 24 -11 0 -3
-19 -26 -41 -51 -23 -26 -60 -84 -82 -130 -44 -92 -43 -91 -122 -48 -63 34
-65 58 -16 157 35 71 112 179 127 179 2 0 22 -20 45 -45z m5512 -132 l37 -6 2
-53 c1 -30 2 -62 2 -71 1 -22 -78 -43 -96 -25 -6 6 -13 48 -16 93 -4 78 -4 82
14 75 11 -5 36 -10 57 -13z m-496 -475 c-3 -8 -6 -5 -6 6 -1 11 2 17 5 13 3
-3 4 -12 1 -19z m-4262 -90 c5 -5 5 -12 -2 -19 -8 -8 -19 -6 -42 5 -30 16 -37
27 -25 39 6 6 52 -10 69 -25z m4178 -2 c4 -10 1 -13 -8 -9 -8 3 -12 9 -9 14 7
12 11 11 17 -5z m-2928 -36 c3 -5 1 -10 -4 -10 -6 0 -11 5 -11 10 0 6 2 10 4
10 3 0 8 -4 11 -10z m55 -47 c0 -19 -13 -9 -16 12 -1 8 2 13 7 9 5 -3 9 -12 9
-21z m2885 18 c3 -5 2 -12 -3 -15 -5 -3 -9 1 -9 9 0 17 3 19 12 6z m-53 -33
c-6 -6 -15 -8 -19 -4 -4 4 -1 11 7 16 8 5 17 7 19 4 3 -2 -1 -10 -7 -16z
m3239 -74 c38 -8 69 -19 69 -22 -1 -4 -7 -18 -15 -32 -8 -14 -14 -37 -15 -52
0 -31 -6 -33 -47 -17 -15 6 -59 14 -98 17 -68 7 -70 8 -73 36 -2 15 2 41 8 57
11 26 17 29 57 29 24 0 75 -7 114 -16z m-9288 -46 c3 -13 9 -48 12 -79 l7 -57
-48 5 c-27 3 -50 6 -50 7 -1 0 -4 25 -6 53 -5 50 -4 54 26 73 40 26 53 25 59
-2z m5891 -22 c-6 -16 -44 -23 -44 -8 0 7 42 30 48 26 1 0 0 -9 -4 -18z m-65
-37 c-15 -9 -32 -2 -24 11 3 5 13 6 21 3 12 -4 13 -8 3 -14z m-2299 -49 c0 -5
-5 -10 -11 -10 -5 0 -7 5 -4 10 3 6 8 10 11 10 2 0 4 -4 4 -10z m119 -33 c0
-9 -2 -8 -6 1 -2 6 -10 9 -15 6 -7 -4 -8 -2 -4 5 9 13 26 5 25 -12z m44 -12
c-3 -9 -8 -14 -10 -11 -3 3 -2 9 2 15 9 16 15 13 8 -4z m1788 -48 c-1 -12 -15
-9 -19 4 -3 6 1 10 8 8 6 -3 11 -8 11 -12z m-71 -17 c0 -5 -2 -10 -4 -10 -3 0
-8 5 -11 10 -3 6 -1 10 4 10 6 0 11 -4 11 -10z m-984 -35 c1 -8 -2 -13 -7 -9
-5 3 -9 -3 -9 -12 0 -10 -2 -15 -5 -12 -4 3 -3 18 1 32 7 27 16 28 20 1z m193
-13 c11 -21 11 -22 -7 -11 -11 7 -18 19 -15 26 6 16 6 16 22 -15z m27 13 c5
-11 11 -12 25 -4 13 7 25 6 37 -1 15 -9 14 -10 -6 -5 -15 4 -24 1 -28 -9 -9
-22 -19 -20 -38 9 -9 14 -12 25 -6 25 6 0 13 -7 16 -15z m478 0 c-4 -8 -18
-15 -34 -15 -16 0 -30 7 -34 15 -4 12 3 15 34 15 31 0 38 -3 34 -15z m116 5
c0 -5 -7 -10 -15 -10 -8 0 -15 5 -15 10 0 6 7 10 15 10 8 0 15 -4 15 -10z
m-267 -6 c9 -9 -4 -35 -14 -28 -5 3 -7 10 -4 15 4 5 -10 9 -29 9 -23 0 -36 -5
-36 -13 0 -8 -12 -13 -30 -12 -40 0 -38 23 3 28 55 7 103 7 110 1z m56 -15
c-16 -10 -23 -4 -14 10 3 6 11 8 17 5 6 -4 5 -9 -3 -15z m-213 -1 c5 -8 2 -9
-11 -4 -11 4 -21 2 -26 -5 -8 -14 -39 -5 -39 11 0 14 67 13 76 -2z m114 -8
c13 -8 13 -10 -2 -10 -9 0 -20 5 -23 10 -8 13 5 13 25 0z m-5026 -136 c34 -34
33 -41 -6 -49 -18 -4 -55 -16 -82 -28 -47 -20 -49 -20 -62 -2 -12 16 -8 22 49
60 34 24 65 43 68 44 4 0 18 -11 33 -25z m7389 -11 c28 4 31 -2 21 -40 -8 -28
-46 -30 -121 -8 -50 15 -51 16 -41 43 l11 28 51 -13 c28 -8 63 -12 79 -10z
m-4983 -655 c18 -29 57 -83 87 -120 l55 -67 -22 -38 c-21 -38 -73 -82 -87 -74
-5 2 -20 37 -35 77 -15 41 -44 106 -65 145 -36 66 -37 71 -19 81 10 6 26 18
35 28 9 10 17 19 18 19 1 1 16 -23 33 -51z m1321 -188 c25 -14 24 -32 -2 -56
-12 -10 -28 -32 -36 -48 -9 -17 -18 -24 -22 -18 -3 6 -19 16 -35 22 l-28 10
28 38 c15 20 32 43 37 50 12 15 32 15 58 2z m-1933 -99 l22 -39 -47 -40 c-27
-21 -66 -50 -88 -64 l-40 -25 -22 33 -22 34 58 40 c32 22 68 54 80 70 12 17
25 30 29 30 5 0 18 -18 30 -39z m5699 -38 c-7 -46 -6 -81 1 -108 16 -58 17
-58 -28 -71 -22 -7 -52 -20 -67 -29 -21 -14 -27 -15 -34 -4 -18 29 -29 87 -29
160 l0 76 48 21 c26 12 63 21 82 22 l36 0 -9 -67z m-2907 -78 c0 -21 -5 -25
-30 -25 -25 0 -30 4 -30 25 0 21 5 25 30 25 25 0 30 -4 30 -25z m910 -120 l0
-135 -30 0 -30 0 0 135 0 135 30 0 30 0 0 -135z m-580 90 c0 -20 5 -25 25 -25
27 0 28 -1 19 -24 -3 -9 -15 -16 -25 -16 -16 0 -19 -8 -19 -55 0 -48 2 -55 20
-55 24 0 28 -35 4 -44 -25 -10 -59 -7 -72 6 -7 7 -12 40 -12 80 0 54 -3 68
-15 68 -8 0 -15 9 -15 20 0 11 7 20 15 20 9 0 15 9 15 25 0 21 5 25 30 25 25
0 30 -4 30 -25z m-5212 -189 c21 -35 21 -36 2 -46 -10 -5 -32 -10 -49 -10 -27
0 -31 5 -50 56 -21 55 -44 145 -39 149 2 1 19 6 38 11 l35 10 21 -67 c12 -37
31 -84 42 -103z m3957 105 c11 -66 22 -67 30 -2 7 59 8 61 36 61 32 0 32 4 0
-130 -16 -64 -16 -65 -51 -65 -33 0 -35 2 -43 45 -12 61 -23 69 -31 23 -12
-68 -16 -73 -46 -73 -36 0 -39 4 -61 104 -23 102 -24 96 10 96 28 0 29 -2 36
-60 4 -33 11 -57 16 -54 5 3 9 13 9 22 0 44 21 91 43 94 28 5 44 -14 52 -61z
m817 46 c4 -6 8 -51 8 -99 l0 -88 -30 0 -29 0 -3 78 c-3 71 -5 77 -25 80 -29
4 -43 -29 -43 -104 0 -51 -1 -54 -25 -54 l-25 0 0 100 0 100 45 -2 c25 0 48 2
52 6 11 11 65 -2 75 -17z m-1538 -9 c3 -13 9 -43 14 -68 l9 -45 14 65 c15 62
17 65 47 68 30 3 31 2 43 -57 7 -34 16 -61 20 -61 3 0 9 27 13 60 7 58 8 60
36 60 l28 0 -14 -62 c-9 -35 -18 -79 -23 -98 -6 -32 -10 -35 -41 -35 -34 0
-35 1 -49 60 l-14 60 -16 -60 c-15 -56 -18 -60 -48 -63 -27 -3 -33 1 -38 20
-43 186 -42 178 -10 178 17 0 26 -7 29 -22z m302 -25 c12 -85 19 -89 33 -19
13 65 14 66 46 66 32 0 33 -1 45 -62 14 -67 20 -63 35 25 5 31 10 37 30 37 30
0 30 3 4 -109 -20 -88 -22 -91 -49 -91 -34 0 -40 8 -55 75 l-12 50 -14 -60
c-15 -59 -16 -60 -49 -60 l-35 0 -17 75 c-9 41 -20 85 -23 98 -5 19 -1 22 24
22 28 0 30 -3 37 -47z m798 31 c12 -31 6 -44 -19 -44 -14 0 -25 5 -25 11 0 6
-14 9 -32 7 -51 -5 -39 -22 22 -33 l55 -11 3 -43 c4 -58 -9 -71 -75 -71 -67 0
-93 13 -93 45 0 20 5 25 25 25 14 0 25 -4 25 -9 0 -13 30 -22 51 -16 37 12 20
32 -33 39 -58 8 -68 17 -68 62 0 44 16 54 91 54 52 0 68 -4 73 -16z m216 -3
c5 -11 10 -36 10 -55 l0 -36 -66 0 c-57 0 -65 -2 -62 -17 4 -21 55 -30 71 -14
19 19 57 13 57 -8 0 -34 -28 -51 -83 -51 -82 0 -97 16 -97 104 0 43 5 77 12
84 7 7 40 12 80 12 56 0 69 -3 78 -19z m330 -81 c0 -99 0 -100 -24 -100 -24 0
-25 2 -28 90 -2 50 -1 95 0 100 2 6 15 10 28 10 24 0 24 -1 24 -100z m110 75
c7 -14 16 -25 20 -25 4 0 13 11 20 25 10 19 21 25 47 25 l34 0 -32 -46 c-24
-35 -30 -51 -22 -63 5 -9 19 -33 32 -53 l23 -38 -29 0 c-19 0 -36 9 -54 31
l-26 32 -19 -31 c-13 -24 -26 -32 -46 -32 -15 0 -28 2 -28 4 0 3 14 27 31 55
l31 50 -24 33 c-42 56 -42 58 -5 58 26 0 37 -6 47 -25z m470 -1 c6 -14 10 -50
10 -80 0 -69 -22 -94 -82 -94 -90 0 -99 9 -100 109 -1 82 8 91 93 91 65 0 70
-2 79 -26z m221 5 c6 -13 9 -49 7 -87 -5 -75 -20 -92 -82 -92 -59 0 -84 9 -92
32 -10 33 -5 139 7 154 8 9 34 14 80 14 60 0 70 -3 80 -21z m313 -1 c3 -13 6
-26 6 -30 0 -12 -48 -10 -55 2 -10 16 -65 12 -65 -4 0 -9 17 -16 53 -21 28 -4
55 -13 59 -19 13 -20 8 -74 -8 -90 -18 -18 -104 -22 -135 -6 -27 15 -26 60 2
60 12 0 27 -7 34 -16 9 -12 20 -15 39 -10 42 10 25 30 -35 41 -49 9 -54 13
-57 39 -2 16 -1 39 2 52 6 23 11 24 80 24 68 0 74 -2 80 -22z m304 -15 c3 -29
0 -33 -21 -33 -14 0 -27 7 -31 15 -3 8 -16 15 -30 15 -28 0 -41 -35 -31 -81 5
-24 12 -29 36 -29 19 0 29 5 29 15 0 9 9 15 25 15 21 0 25 -5 25 -30 0 -36
-23 -50 -84 -50 -67 0 -86 23 -86 101 0 93 7 100 93 97 l72 -3 3 -32z m212 18
c5 -11 10 -47 10 -80 0 -79 -19 -101 -88 -101 -27 0 -57 7 -70 16 -19 13 -22
24 -22 88 0 43 5 77 12 84 7 7 40 12 80 12 56 0 69 -3 78 -19z m110 7 c0 -9 3
-9 12 0 15 15 84 16 94 1 4 -8 9 -8 17 0 18 18 94 14 101 -5 3 -9 6 -54 6
-100 l0 -85 -27 3 c-27 3 -28 5 -31 73 -3 77 -10 90 -41 80 -19 -6 -21 -14
-21 -81 0 -72 -1 -74 -25 -74 -23 0 -24 3 -27 78 -3 75 -4 77 -28 77 -24 0
-25 -2 -28 -77 l-3 -78 -29 0 -30 0 0 100 0 100 30 0 c17 0 30 -5 30 -12z
m-2490 -158 c0 -25 -4 -30 -25 -30 -21 0 -25 5 -25 30 0 25 4 30 25 30 21 0
25 -5 25 -30z m1960 0 c0 -25 -4 -30 -25 -30 -21 0 -25 5 -25 30 0 25 4 30 25
30 21 0 25 -5 25 -30z m-2320 -253 c0 -13 5 -28 10 -33 15 -15 -61 -48 -88
-40 -11 4 -33 16 -48 28 l-27 22 64 21 c84 29 89 29 89 2z m755 -277 c3 -5 -6
-21 -22 -34 -37 -32 -56 -16 -23 19 25 27 35 30 45 15z"/>
<path d="M4836 1174 c-9 -24 -9 -24 29 -24 28 0 35 4 35 20 0 15 -7 20 -29 20
-17 0 -31 -6 -35 -16z"/>
<path d="M5745 1167 c-4 -14 -5 -38 -3 -53 3 -25 8 -29 36 -32 l33 -3 -3 53
c-3 49 -5 53 -30 56 -22 3 -29 -2 -33 -21z"/>
<path d="M5964 1177 c-3 -8 -4 -32 -2 -53 3 -36 6 -39 36 -42 l33 -3 -3 53
c-3 50 -5 53 -31 56 -17 2 -29 -2 -33 -11z"/>
<path d="M6794 1166 c-3 -13 -4 -37 -2 -52 2 -24 8 -30 34 -32 26 -3 33 1 38
21 3 14 3 39 0 56 -5 26 -11 31 -35 31 -22 0 -30 -6 -35 -24z"/>
<path d="M6633 6658 c-25 -15 -33 -27 -34 -51 -1 -18 -2 -36 -4 -42 -1 -5 -3
-22 -3 -38 l-2 -27 -60 30 c-57 29 -62 30 -89 15 -17 -8 -32 -19 -35 -23 -3
-5 34 -30 83 -55 l88 -47 -4 -52 c-2 -29 -5 -72 -7 -95 -2 -24 -1 -43 3 -43 3
0 21 9 39 20 30 19 32 23 32 80 0 35 4 60 10 60 6 0 33 -11 60 -25 l50 -25 42
21 43 22 -92 46 -93 45 7 103 c3 57 4 103 2 102 -2 0 -19 -10 -36 -21z"/>
<path d="M4252 6629 c-11 -17 -13 -17 -40 -2 -45 26 -77 11 -112 -50 -16 -28
-30 -58 -30 -66 0 -7 17 -29 37 -48 36 -34 36 -36 20 -61 -18 -31 -32 -28 -32
6 0 15 -9 29 -25 37 -34 19 -35 19 -48 -10 -20 -43 -14 -73 18 -96 23 -18 27
-26 19 -40 -7 -15 -4 -21 18 -33 24 -12 29 -12 38 1 10 13 16 13 34 4 41 -23
73 -10 109 43 17 26 32 57 32 68 0 11 -15 34 -34 52 -34 30 -34 32 -19 61 21
40 20 40 38 25 11 -9 12 -17 4 -32 -6 -11 -9 -21 -7 -22 56 -37 56 -37 73 -14
8 12 15 37 15 56 0 26 -6 36 -30 50 -25 14 -29 22 -25 43 5 20 1 28 -18 36
-19 9 -25 8 -35 -8z m-47 -68 c8 -13 -16 -61 -30 -61 -22 0 -24 12 -9 41 15
30 28 36 39 20z m0 -171 c10 -16 -23 -60 -40 -54 -13 5 -13 9 1 35 15 30 28
36 39 19z"/>
<path d="M9429 5719 c-77 -50 -209 -179 -209 -205 0 -10 14 -33 31 -50 l31
-32 62 66 c33 36 95 91 137 122 l76 56 -24 28 c-12 15 -23 34 -23 42 0 21 -11
18 -81 -27z"/>
<path d="M8 5553 c6 -2 10 -8 8 -12 -3 -4 1 -8 9 -8 11 0 12 4 4 14 -6 7 -17
13 -23 12 -7 0 -6 -2 2 -6z"/>
<path d="M10786 5415 c-3 -8 -1 -15 4 -15 6 0 10 7 10 15 0 8 -2 15 -4 15 -2
0 -6 -7 -10 -15z"/>
<path d="M10635 5250 c-3 -5 -1 -10 4 -10 6 0 11 5 11 10 0 6 -2 10 -4 10 -3
0 -8 -4 -11 -10z"/>
<path d="M9802 4834 c10 -10 20 -16 22 -13 3 3 -5 11 -17 18 -21 13 -21 12 -5
-5z"/>
<path d="M5107 4548 c-30 -40 -47 -72 -57 -108 -7 -24 -3 -33 27 -61 19 -19
46 -53 60 -76 28 -48 34 -51 54 -26 18 21 71 43 104 43 14 0 25 4 25 9 0 17
-117 185 -153 219 l-35 34 -25 -34z"/>
<path d="M6571 2753 c-1 -7 -4 -12 -8 -12 -20 3 -33 -2 -33 -12 0 -8 5 -8 15
1 12 10 15 10 15 -1 0 -9 3 -10 11 -2 6 6 9 17 6 25 -4 9 -6 10 -6 1z"/>
<path d="M6497 2729 c7 -7 15 -10 18 -7 3 3 -2 9 -12 12 -14 6 -15 5 -6 -5z"/>
<path d="M6467 2685 c-12 -11 -17 -12 -20 -2 -3 6 -6 3 -6 -8 -1 -17 -3 -17
-11 -5 -6 10 -10 11 -10 3 0 -7 -5 -13 -11 -13 -5 0 -7 5 -3 11 5 8 1 8 -13 0
-11 -6 -22 -8 -25 -6 -3 3 -5 -1 -5 -9 0 -9 13 -14 37 -14 20 0 40 -2 46 -3
26 -5 46 2 41 15 -3 7 -1 18 5 24 6 6 6 12 0 16 -6 3 -17 -1 -25 -9z"/>
<path d="M4647 2609 c-13 -18 -18 -19 -37 -9 -12 6 -24 9 -27 6 -12 -11 48
-26 65 -16 9 5 13 10 8 10 -5 0 -3 7 4 15 7 8 10 15 7 15 -3 0 -12 -9 -20 -21z"/>
<path d="M5114 2560 c3 -14 6 -29 6 -34 0 -5 9 -1 20 9 19 18 18 41 -2 29 -6
-4 -15 0 -20 7 -7 10 -8 7 -4 -11z"/>
<path d="M6105 2559 c-4 -6 -5 -12 -2 -15 2 -3 7 2 10 11 7 17 1 20 -8 4z"/>
<path d="M5146 2531 c-4 -5 -2 -12 3 -15 5 -4 12 -2 15 3 4 5 2 12 -3 15 -5 4
-12 2 -15 -3z"/>
</g>
</svg>
